<svg xmlns="http://www.w3.org/2000/svg" id="uuid-95a9f912-107d-444a-a3cf-c33de7fa81c6" viewBox="0 0 799.92 799.92"><defs fill="#fa6900"><style>.uuid-19b9ee44-f37f-4e00-84dd-dc3a44cb8922{fill:#000000;fill-rule:evenodd;}</style></defs><path class="uuid-19b9ee44-f37f-4e00-84dd-dc3a44cb8922" d="M399.96,10.91C185.09,10.91,10.91,185.09,10.91,399.96s174.19,389.05,389.05,389.05,389.05-174.19,389.05-389.05S614.83,10.91,399.96,10.91Zm200.47,222.01l-202.54,190.59L197.96,232.91h402.46Zm-432.85,10.49l169.88,163.06-169.88,152.01V243.41Zm299,340.53H182.86c36.5-32.34,72.91-64.81,109.25-97.42,22.53-20.22,45.03-40.48,67.5-60.8,7.65,7.78,15.3,15.55,22.96,23.33,6.59,9.31,18.18,10.41,25.89,2.46,8.76-9.04,17.53-18.08,26.29-27.13,10.27,9.6,20.88,19.27,31.83,28.97,10.81,9.58,21.5,18.79,32.03,27.64,39.09,34.32,78.17,68.63,117.26,102.95h-149.29Zm165.76-25.47l-176.18-152.7,176.18-162.37v315.07Z" fill="#fa6900"/></svg>