<svg xmlns="http://www.w3.org/2000/svg" id="uuid-9de691f5-01b2-450d-9fab-8ce59a65e59d" viewBox="0 0 799.92 799.92"><defs fill="#FA6900"><style>.uuid-c3b2fa1e-edda-41af-a9cc-2f461f6cbc4c{fill:#000000;}</style></defs><path class="uuid-c3b2fa1e-edda-41af-a9cc-2f461f6cbc4c" d="M399.96,10.91C185.09,10.91,10.91,185.09,10.91,399.96s174.19,389.05,389.05,389.05,389.05-174.19,389.05-389.05S614.83,10.91,399.96,10.91Zm75.19,618.22c-7.89,0-7.47-4.68-7.89-9.41v-59.17c.01-18-7.21-35.24-20.04-47.86,74.16-13.04,105.19-58.22,105.19-111.98,0-26.09-8.68-50.23-25.72-69.59,10.1-31.4-1.37-58.01-2.89-62.06-28.4-2.58-57.86,18.57-63.8,23.09-17.51-4.73-37.4-7.31-59.7-7.31s-42.02,2.47-59.38,7.15c-2.47-1.95-34.24-26.56-64.8-23.83-1.58,4.05-13.31,31.29-2.58,63.12-16.83,19.3-25.4,43.23-25.4,69.27,0,53.65,30.82,98.78,104.77,112.03-8.84,8.57-15.25,19.62-18.25,31.98-13.73,3.42-40.81,6.89-54.7-13.68-19.2-28.35-35.77-38.82-52.02-30.45-6.84,7.89,16.04,12.1,25.72,28.61,4.79,7.89,7.68,55.12,79.05,46.76v40.76c0,6,1.89,14.78-10.47,11.68-91.78-32.08-157.68-119.45-157.68-222.22,0-129.97,105.35-235.26,235.42-235.21h0c129.97,0,235.37,105.25,235.37,235.26,0,103.67-67.06,191.66-160.21,223.06Z" fill="#FA6900"/></svg>