<svg xmlns="http://www.w3.org/2000/svg" id="uuid-5087f4d8-0e58-4cf6-96c4-82888c6dfc47" viewBox="0 0 799.92 799.92"><defs fill="#FA6900"><style>.uuid-f9c904ce-89aa-4571-9eb8-5479f37f52cb{fill:#000000;}</style></defs><path class="uuid-f9c904ce-89aa-4571-9eb8-5479f37f52cb" d="M565.84,274.46c-3.86-9.93-8.47-17.02-15.92-24.47-7.45-7.45-14.54-12.06-24.47-15.92-7.5-2.91-18.77-6.38-39.51-7.33-22.44-1.02-29.17-1.24-85.99-1.24s-63.55,.22-85.99,1.24c-20.75,.95-32.01,4.41-39.51,7.33-9.93,3.86-17.02,8.47-24.47,15.92-7.45,7.45-12.06,14.54-15.92,24.47-2.91,7.5-6.38,18.77-7.33,39.51-1.02,22.44-1.24,29.17-1.24,85.99s.22,63.55,1.24,85.99c.95,20.75,4.41,32.01,7.33,39.51,3.86,9.93,8.47,17.02,15.92,24.47,7.45,7.45,14.54,12.06,24.47,15.92,7.5,2.91,18.77,6.38,39.51,7.33,22.43,1.02,29.16,1.24,85.99,1.24s63.55-.22,85.99-1.24c20.75-.95,32.01-4.41,39.51-7.33,9.93-3.86,17.02-8.47,24.47-15.92,7.45-7.45,12.06-14.54,15.92-24.47,2.91-7.5,6.38-18.77,7.33-39.51,1.02-22.44,1.24-29.17,1.24-85.99s-.22-63.55-1.24-85.99c-.95-20.75-4.41-32.01-7.33-39.51Zm-165.88,234.77c-60.35,0-109.27-48.92-109.27-109.27s48.92-109.27,109.27-109.27,109.27,48.92,109.27,109.27-48.92,109.27-109.27,109.27Zm113.59-197.33c-14.1,0-25.54-11.43-25.54-25.54s11.43-25.53,25.54-25.53,25.53,11.43,25.53,25.53-11.43,25.54-25.53,25.54Z" fill="#FA6900"/><circle class="uuid-f9c904ce-89aa-4571-9eb8-5479f37f52cb" cx="399.96" cy="399.96" r="70.93" transform="translate(-81.19 102.59) rotate(-13.28)" fill="#FA6900"/><path class="uuid-f9c904ce-89aa-4571-9eb8-5479f37f52cb" d="M399.96,10.91C185.09,10.91,10.91,185.09,10.91,399.96s174.19,389.05,389.05,389.05,389.05-174.19,389.05-389.05S614.83,10.91,399.96,10.91Zm211.51,476.79c-1.03,22.65-4.63,38.12-9.89,51.65-5.44,13.99-12.71,25.86-24.54,37.69-11.83,11.83-23.7,19.11-37.69,24.54-13.54,5.26-29,8.86-51.65,9.89-22.7,1.04-29.94,1.28-87.73,1.28s-65.04-.24-87.73-1.28c-22.65-1.03-38.12-4.63-51.65-9.89-13.99-5.44-25.86-12.71-37.69-24.54-11.83-11.83-19.11-23.7-24.54-37.69-5.26-13.54-8.86-29-9.89-51.65-1.04-22.7-1.28-29.94-1.28-87.73s.24-65.04,1.28-87.73c1.03-22.65,4.63-38.12,9.89-51.65,5.44-13.99,12.71-25.86,24.54-37.69,11.83-11.83,23.7-19.11,37.69-24.54,13.54-5.26,29-8.86,51.65-9.89,22.7-1.04,29.94-1.28,87.73-1.28s65.04,.24,87.73,1.28c22.65,1.03,38.12,4.63,51.65,9.89,13.99,5.44,25.86,12.71,37.69,24.54,11.83,11.83,19.11,23.7,24.54,37.69,5.26,13.54,8.86,29,9.89,51.65,1.04,22.7,1.28,29.94,1.28,87.73s-.24,65.04-1.28,87.73Z" fill="#FA6900"/></svg>