<svg xmlns="http://www.w3.org/2000/svg" id="uuid-0e2eb7c1-7a68-413a-aec9-d624dae3f4d9" viewBox="0 0 799.92 799.92"><defs fill="#FA6900"><style>.uuid-472ae682-b171-4c41-b76c-1f383187e6f4{fill:#000000;fill-rule:evenodd;}</style></defs><path class="uuid-472ae682-b171-4c41-b76c-1f383187e6f4" d="M399.96,10.91C185.09,10.91,10.91,185.09,10.91,399.96s174.19,389.05,389.05,389.05,389.05-174.19,389.05-389.05S614.83,10.91,399.96,10.91Zm-129.42,603.56c-27.48-.37-54.97-.28-82.46-.05-5.1,.04-6.82-1.23-6.82-6.6,.13-92.21,.11-184.42-.03-276.63,0-4.8,1.17-6.41,6.21-6.36,27.99,.24,55.98,.27,83.96-.02,5.59-.06,6.45,1.98,6.43,6.91-.17,45.98-.1,91.96-.1,137.94,0,45.73-.1,91.46,.12,137.19,.02,5.68-1.12,7.7-7.31,7.62Zm11.84-365.52c-6.6,25.87-33.35,40.76-64.23,35.74-32.8-5.32-51.08-37.33-38.99-68.26,7.54-19.32,26.85-31.01,51.14-30.98,36.87,.04,60.83,29.25,52.09,63.5Zm334.73,365.5c-27.24-.33-54.49-.32-81.74,0-5.96,.07-7.49-1.63-7.46-7.5,.22-48.5,.14-96.99,.1-145.48-.02-11.02-.77-21.97-3.87-32.65-9.93-34.23-48.88-46.25-76.61-23.49-14.99,12.29-20.84,28.55-20.73,47.69,.24,45.75,.07,91.49,.07,137.24,0,6-.33,12.02,.1,17.99,.38,5.18-1.74,6.18-6.43,6.15-27.75-.19-55.49-.21-83.24,.01-5.03,.04-6.84-.98-6.79-6.52,.41-41.23,.57-82.49,.59-123.73,0-50.75-.09-101.49-.45-152.24-.04-5.56,1.13-7.2,6.86-7.13,27.75,.31,55.49,.26,83.24,.03,5-.05,6.39,1.46,6.23,6.32-.34,10.46-.1,20.93-.1,33.29,1.86-2,2.58-2.61,3.1-3.36,25.32-36.94,61.48-47.81,103.68-41.32,48.76,7.5,79.96,41.64,87.93,93.86,1.89,12.38,2.83,24.82,2.82,37.34-.03,52-.11,104,.11,155.99,.03,5.86-1.41,7.58-7.41,7.5Z" fill="#FA6900"/></svg>