<svg xmlns="http://www.w3.org/2000/svg" id="uuid-874633cd-ac85-4e57-90e0-62ebe7467752" viewBox="0 0 799.92 799.92"><defs fill="#FA6900"><style>.uuid-f2498f79-223b-4173-af0b-c52202c678fb{fill:#000000;}</style></defs><path class="uuid-f2498f79-223b-4173-af0b-c52202c678fb" d="M399.96,10.91C185.09,10.91,10.91,185.09,10.91,399.96s174.19,389.05,389.05,389.05,389.05-174.19,389.05-389.05S614.83,10.91,399.96,10.91Zm207.79,282.49c.21,4.6,.31,9.22,.31,13.87,0,141.67-107.83,305.04-305.03,305.04-60.54,0-116.9-17.75-164.34-48.17,8.39,.99,16.92,1.5,25.57,1.5,50.23,0,96.46-17.14,133.15-45.89-46.91-.87-86.51-31.86-100.15-74.46,6.54,1.25,13.26,1.92,20.17,1.92,9.78,0,19.25-1.31,28.25-3.76-49.05-9.85-86-53.18-86-105.12,0-.45,0-.9,0-1.35,14.46,8.03,30.99,12.85,48.56,13.41-28.77-19.23-47.7-52.04-47.7-89.23,0-19.65,5.29-38.06,14.52-53.9,52.88,64.86,131.88,107.54,220.98,112.02-1.83-7.85-2.78-16.03-2.78-24.43,0-59.21,48-107.21,107.21-107.21,30.83,0,58.7,13.02,78.26,33.86,24.42-4.81,47.37-13.73,68.08-26.02-8.01,25.03-25,46.04-47.14,59.31,21.69-2.59,42.35-8.35,61.58-16.88-14.37,21.5-32.55,40.38-53.5,55.5Z" fill="#FA6900"/></svg>